<?xml version="1.0" standalone="no"?>
<!DOCTYPE svg PUBLIC "-//W3C//DTD SVG 20010904//EN"
 "http://www.w3.org/TR/2001/REC-SVG-20010904/DTD/svg10.dtd">
<svg version="1.0" xmlns="http://www.w3.org/2000/svg"
 width="512.000000pt" height="512.000000pt" viewBox="0 0 512.000000 512.000000"
 preserveAspectRatio="xMidYMid meet">

<g transform="translate(0.000000,512.000000) scale(0.100000,-0.100000)"
fill="#fff" stroke="none">
<path d="M2496 5096 c-61 -36 -75 -73 -76 -193 0 -88 -2 -102 -17 -107 -10 -3
-38 -10 -63 -16 -70 -18 -191 -84 -265 -143 -125 -100 -229 -260 -270 -412 -8
-33 -22 -150 -30 -260 -18 -246 -29 -317 -67 -422 -51 -142 -141 -264 -267
-362 -131 -102 -206 -196 -260 -324 -119 -288 -59 -597 159 -817 125 -127 281
-202 453 -219 l82 -8 75 58 c408 314 946 313 1312 -2 65 -57 78 -58 193 -29
488 125 715 684 454 1116 -48 78 -115 151 -211 227 -130 103 -214 217 -267
363 -35 98 -48 174 -61 379 -13 193 -16 220 -41 313 -68 257 -286 475 -546
547 l-63 18 0 99 c0 120 -19 167 -80 198 -52 26 -96 25 -144 -4z"/>
<path d="M1488 4760 c-427 -50 -746 -288 -977 -730 -61 -117 -132 -298 -162
-411 -38 -141 -17 -164 192 -213 176 -41 315 -59 474 -60 l150 -1 71 57 c175
140 216 234 234 533 22 364 79 545 235 750 l65 85 -107 -1 c-60 -1 -138 -5
-175 -9z"/>
<path d="M3434 4686 c111 -145 181 -306 210 -482 9 -49 20 -168 26 -264 17
-306 58 -399 239 -542 l76 -60 145 6 c206 8 471 55 591 103 50 19 73 61 65
113 -3 20 -23 88 -44 151 -151 448 -400 778 -702 929 -161 80 -316 117 -534
127 l-139 6 67 -87z"/>
<path d="M2505 1799 c-197 -30 -377 -135 -510 -297 -232 -281 -286 -639 -145
-967 34 -79 122 -204 197 -278 198 -198 464 -295 666 -242 76 20 129 47 172
90 109 110 113 279 9 394 -49 54 -82 76 -149 97 -36 11 -37 13 -11 13 93 3
245 69 333 146 70 61 144 174 174 266 31 97 34 264 5 349 -55 163 -157 280
-308 354 -51 25 -118 52 -149 60 -75 19 -212 26 -284 15z"/>
</g>
</svg>
