<?xml version="1.0" standalone="no"?>
<!DOCTYPE svg PUBLIC "-//W3C//DTD SVG 20010904//EN"
 "http://www.w3.org/TR/2001/REC-SVG-20010904/DTD/svg10.dtd">
<svg version="1.0" xmlns="http://www.w3.org/2000/svg"
 width="512.000000pt" height="512.000000pt" viewBox="0 0 512.000000 512.000000"
 preserveAspectRatio="xMidYMid meet">

<g transform="translate(0.000000,512.000000) scale(0.100000,-0.100000)"
fill="#fff" stroke="none">
<path d="M190 3961 c-143 -44 -221 -191 -175 -332 16 -52 69 -106 1204 -1242
867 -868 1198 -1193 1231 -1210 62 -30 158 -30 220 0 33 17 364 342 1231 1210
1135 1136 1188 1190 1204 1242 66 203 -123 392 -326 326 -52 -17 -103 -66
-1137 -1099 l-1082 -1081 -1083 1081 c-992 992 -1086 1083 -1131 1098 -52 17
-114 20 -156 7z"/>
</g>
</svg>
