<?xml version="1.0" standalone="no"?>
<!DOCTYPE svg PUBLIC "-//W3C//DTD SVG 20010904//EN"
 "http://www.w3.org/TR/2001/REC-SVG-20010904/DTD/svg10.dtd">
<svg version="1.0" xmlns="http://www.w3.org/2000/svg"
 width="512.000000pt" height="512.000000pt" viewBox="0 0 512.000000 512.000000"
 preserveAspectRatio="xMidYMid meet">

<g transform="translate(0.000000,512.000000) scale(0.100000,-0.100000)"
fill="#fff" stroke="none">
<path d="M4553 5105 c-29 -8 -74 -26 -101 -39 -51 -26 -202 -160 -202 -180 0
-6 143 -154 318 -329 l318 -318 75 78 c88 90 122 145 143 228 41 155 -3 303
-127 429 -120 123 -276 171 -424 131z"/>
<path d="M3508 4909 c-101 -24 -232 -122 -295 -222 -85 -135 -82 -333 7 -461
16 -23 248 -260 517 -527 530 -528 517 -517 655 -541 75 -13 165 0 244 36 80
37 196 152 237 236 30 62 32 71 32 180 0 195 26 160 -542 730 -310 312 -502
497 -536 518 -91 54 -218 75 -319 51z"/>
<path d="M2865 4156 c-11 -7 -117 -71 -235 -141 -515 -307 -846 -552 -1141
-845 -294 -293 -453 -556 -572 -946 l-25 -81 624 -624 623 -623 161 53 c430
142 739 369 1112 816 214 257 485 662 727 1087 l32 57 -48 25 c-95 48 -175
121 -653 603 -423 425 -491 497 -525 560 -22 40 -44 72 -50 72 -5 0 -19 -6
-30 -13z"/>
<path d="M411 2040 c-117 -53 -294 -218 -307 -286 -15 -81 -34 -60 783 -876
l768 -768 53 0 c29 0 66 7 81 15 49 25 186 181 226 256 33 63 37 78 33 126
l-5 55 -734 735 c-424 425 -748 741 -766 749 -44 19 -80 17 -132 -6z"/>
<path d="M213 990 c-59 -30 -87 -78 -81 -139 14 -142 170 -190 261 -81 39 46
44 90 16 147 -43 85 -117 113 -196 73z"/>
<path d="M793 411 c-59 -28 -85 -72 -80 -138 10 -135 153 -189 248 -94 51 51
59 96 28 158 -43 84 -115 112 -196 74z"/>
<path d="M82 283 c-51 -25 -77 -69 -77 -130 0 -85 61 -148 145 -148 55 0 91
21 128 75 28 42 28 84 0 140 -38 73 -121 100 -196 63z"/>
</g>
</svg>
