<?xml version="1.0" standalone="no"?>
<!DOCTYPE svg PUBLIC "-//W3C//DTD SVG 20010904//EN"
 "http://www.w3.org/TR/2001/REC-SVG-20010904/DTD/svg10.dtd">
<svg version="1.0" xmlns="http://www.w3.org/2000/svg"
 width="512.000000pt" height="512.000000pt" viewBox="0 0 512.000000 512.000000"
 preserveAspectRatio="xMidYMid meet">
<metadata>
Created by potrace 1.16, written by Peter Selinger 2001-2019
</metadata>
<g transform="translate(0.000000,512.000000) scale(0.100000,-0.100000)"
fill="#fff" stroke="none">
<path d="M4570 5105 c-378 -60 -639 -247 -765 -545 -63 -151 -105 -370 -105
-553 l0 -92 -1671 -1670 c-918 -919 -1677 -1682 -1685 -1697 -8 -15 -14 -49
-14 -75 0 -85 58 -143 143 -143 26 0 60 6 75 14 15 8 778 767 1697 1685 l1670
1671 92 0 c183 0 402 42 553 105 197 83 357 236 445 428 79 171 115 359 115
601 0 192 -12 231 -84 265 -38 19 -60 21 -212 20 -93 -1 -207 -7 -254 -14z"/>
<path d="M2678 4996 c-72 -26 -253 -210 -356 -363 -97 -144 -159 -293 -182
-436 -15 -92 -8 -246 15 -331 54 -204 178 -407 357 -588 l81 -81 362 364 363
364 7 80 c8 102 -8 225 -45 337 -37 111 -73 181 -151 299 -65 96 -257 304
-313 338 -43 27 -94 33 -138 17z"/>
<path d="M1591 3923 c-48 -24 -215 -193 -294 -298 -82 -108 -179 -301 -207
-408 -70 -277 -3 -551 205 -832 61 -83 212 -245 229 -245 6 0 173 162 371 360
l360 360 0 138 c0 145 -10 201 -61 333 -58 153 -212 371 -363 510 -107 100
-164 119 -240 82z"/>
<path d="M3967 3321 c-47 -7 -53 -12 -407 -366 l-359 -358 34 -42 c19 -22 71
-72 115 -110 167 -143 316 -230 485 -281 81 -25 105 -28 235 -28 129 0 155 3
235 28 111 33 229 91 328 159 175 121 347 293 367 367 21 78 3 111 -138 251
-226 223 -446 345 -686 378 -83 12 -133 12 -209 2z"/>
<path d="M520 2853 c-56 -38 -149 -126 -215 -203 -132 -154 -211 -289 -267
-453 -27 -79 -32 -110 -36 -222 -3 -96 0 -151 11 -207 44 -211 174 -432 367
-623 l80 -80 363 363 362 362 3 114 c8 236 -67 441 -244 673 -71 93 -236 257
-279 277 -43 21 -114 20 -145 -1z"/>
<path d="M2885 2254 c-23 -4 -109 -84 -387 -362 -197 -196 -358 -362 -358
-368 0 -17 162 -168 246 -230 279 -206 555 -274 833 -203 105 27 298 125 406
206 107 81 276 249 299 297 36 76 17 130 -83 237 -182 197 -416 345 -636 405
-59 15 -261 27 -320 18z"/>
<path d="M1805 1183 c-12 -2 -183 -166 -380 -364 l-360 -360 105 -102 c173
-169 366 -284 556 -333 89 -23 113 -25 239 -21 124 3 150 7 232 35 164 56 299
135 453 267 77 66 165 159 203 215 21 31 22 102 1 145 -21 45 -189 212 -286
285 -157 118 -312 194 -460 224 -70 15 -250 20 -303 9z"/>
</g>
</svg>
