<?xml version="1.0" standalone="no"?>
<!DOCTYPE svg PUBLIC "-//W3C//DTD SVG 20010904//EN"
 "http://www.w3.org/TR/2001/REC-SVG-20010904/DTD/svg10.dtd">
<svg version="1.0" xmlns="http://www.w3.org/2000/svg"
 width="512.000000pt" height="512.000000pt" viewBox="0 0 512.000000 512.000000"
 preserveAspectRatio="xMidYMid meet">
<metadata>
Created by potrace 1.16, written by Peter Selinger 2001-2019
</metadata>
<g transform="translate(0.000000,512.000000) scale(0.100000,-0.100000)"
fill="#fff" stroke="none">
<path d="M589 5098 c-29 -20 -71 -98 -311 -578 -260 -522 -276 -558 -277 -610
0 -52 13 -81 277 -605 238 -473 282 -553 311 -572 l34 -23 761 0 761 0 300
599 299 599 -284 577 c-156 316 -293 584 -305 594 -45 41 -39 41 -798 41
l-734 0 -34 -22z m1234 -457 c36 -22 53 -52 203 -358 128 -261 164 -344 164
-374 0 -31 -35 -110 -165 -368 -148 -296 -169 -332 -202 -353 l-38 -23 -425 0
-425 0 -38 23 c-33 21 -54 57 -202 353 -130 258 -165 337 -165 368 0 30 36
113 164 373 171 349 179 361 251 379 16 4 212 7 435 6 l405 -2 38 -24z"/>
<path d="M943 4139 l-112 -230 112 -225 112 -224 305 0 305 0 112 224 112 225
-112 230 -112 231 -305 -1 -305 0 -112 -230z"/>
<path d="M2690 3160 l-300 -600 300 -599 300 -600 407 -3 c400 -3 409 -3 443
-25 68 -42 64 -15 70 -583 l5 -515 26 -55 c37 -78 71 -114 141 -149 52 -27 72
-31 137 -31 127 0 217 54 270 162 l31 61 0 562 0 562 300 582 c284 550 300
583 299 633 0 49 -21 95 -277 603 -238 473 -282 553 -311 573 l-34 22 -753 0
-754 0 -300 -600z m1533 122 c33 -21 54 -57 202 -353 132 -263 165 -336 165
-369 0 -33 -33 -106 -165 -369 -148 -296 -169 -332 -202 -353 l-38 -23 -415 0
-415 0 -38 23 c-33 21 -54 57 -202 353 -132 263 -165 336 -165 369 0 33 33
106 165 369 170 341 180 355 250 372 16 4 208 7 425 6 l395 -2 38 -23z"/>
<path d="M3362 2785 l-112 -225 112 -225 113 -225 295 0 295 0 113 225 112
225 -112 225 -113 225 -295 0 -295 0 -113 -225z"/>
<path d="M589 2388 c-29 -20 -73 -100 -311 -573 -264 -524 -277 -553 -277
-605 1 -52 17 -88 277 -610 240 -480 282 -558 311 -577 l34 -23 734 0 c759 0
753 0 798 41 12 10 149 278 305 594 l284 577 -299 599 -300 599 -761 0 -761 0
-34 -22z m1234 -456 c33 -21 54 -57 202 -353 130 -258 165 -337 165 -368 0
-30 -36 -113 -164 -374 -150 -306 -167 -336 -203 -358 l-38 -24 -425 0 -425 0
-38 24 c-36 22 -53 52 -203 358 -128 261 -164 344 -164 374 0 31 35 110 165
368 170 341 180 355 250 372 16 4 212 7 435 6 l405 -2 38 -23z"/>
<path d="M943 1436 l-112 -225 112 -230 112 -230 305 0 305 -1 112 231 112
230 -112 225 -112 224 -305 0 -305 0 -112 -224z"/>
</g>
</svg>
