<?xml version="1.0" standalone="no"?>
<!DOCTYPE svg PUBLIC "-//W3C//DTD SVG 20010904//EN"
 "http://www.w3.org/TR/2001/REC-SVG-20010904/DTD/svg10.dtd">
<svg version="1.0" xmlns="http://www.w3.org/2000/svg"
 width="512.000000pt" height="512.000000pt" viewBox="0 0 512.000000 512.000000"
 preserveAspectRatio="xMidYMid meet">
<metadata>
Created by potrace 1.16, written by Peter Selinger 2001-2019
</metadata>
<g transform="translate(0.000000,512.000000) scale(0.100000,-0.100000)"
fill="#000" stroke="none">
<path d="M3627 5053 c-573 -723 -694 -893 -766 -1074 -127 -319 -52 -683 190
-928 117 -118 258 -200 417 -243 111 -30 314 -30 434 0 318 79 564 323 650
642 32 121 32 311 0 425 -53 184 -154 349 -428 700 -357 457 -427 545 -435
545 -5 0 -32 -30 -62 -67z"/>
<path d="M1683 3797 c-320 -408 -619 -794 -665 -857 -180 -252 -331 -528 -397
-727 -133 -403 -96 -864 101 -1258 241 -482 676 -816 1208 -926 103 -21 140
-24 350 -24 221 1 242 3 354 29 160 37 267 76 411 147 462 229 809 679 914
1185 74 357 33 709 -120 1043 l-40 86 -122 0 c-67 1 -153 7 -192 14 -545 104
-948 562 -972 1102 -7 155 7 259 54 401 l35 107 -164 210 c-89 115 -165 210
-168 210 -3 1 -267 -333 -587 -742z"/>
</g>
</svg>
