<?xml version="1.0" standalone="no"?>
<!DOCTYPE svg PUBLIC "-//W3C//DTD SVG 20010904//EN"
 "http://www.w3.org/TR/2001/REC-SVG-20010904/DTD/svg10.dtd">
<svg version="1.0" xmlns="http://www.w3.org/2000/svg"
 width="512.000000pt" height="512.000000pt" viewBox="0 0 512.000000 512.000000"
 preserveAspectRatio="xMidYMid meet">

<g transform="translate(0.000000,512.000000) scale(0.100000,-0.100000)"
fill="#fff" stroke="none">
<path d="M1143 5100 c-67 -40 -63 34 -63 -1168 l0 -1089 23 -34 c12 -18 34
-39 47 -46 19 -10 163 -12 640 -10 l614 2 232 395 c303 514 276 474 336 504
89 44 115 37 342 -98 70 -42 130 -76 132 -76 2 0 4 348 4 773 0 748 -1 773
-20 804 -40 67 34 63 -1167 63 -1061 0 -1089 -1 -1120 -20z"/>
<path d="M3113 3228 c-4 -7 -90 -152 -190 -323 l-183 -310 3 -943 2 -943 560
-331 c417 -246 570 -332 600 -335 82 -10 62 -38 657 972 301 512 550 942 553
957 4 17 -1 43 -13 70 -19 42 -34 52 -987 613 -532 314 -974 573 -981 578 -7
4 -16 2 -21 -5z"/>
<path d="M62 2350 c-65 -40 -62 19 -62 -1166 0 -1192 -4 -1124 64 -1165 30
-18 72 -19 1119 -19 1195 0 1133 -3 1170 59 16 27 17 110 17 1126 0 997 -1
1099 -16 1125 -38 64 39 60 -1166 60 -1079 0 -1093 0 -1126 -20z"/>
</g>
</svg>
