<?xml version="1.0" standalone="no"?>
<!DOCTYPE svg PUBLIC "-//W3C//DTD SVG 20010904//EN"
 "http://www.w3.org/TR/2001/REC-SVG-20010904/DTD/svg10.dtd">
<svg version="1.0" xmlns="http://www.w3.org/2000/svg"
 width="512.000000pt" height="512.000000pt" viewBox="0 0 512.000000 512.000000"
 preserveAspectRatio="xMidYMid meet">
<metadata>
Created by potrace 1.16, written by Peter Selinger 2001-2019
</metadata>
<g transform="translate(0.000000,512.000000) scale(0.100000,-0.100000)"
fill="#000" stroke="none">
<path d="M2060 5091 c-269 -88 -629 -340 -1055 -737 -148 -138 -362 -359 -447
-461 l-43 -53 -168 0 c-185 0 -208 -5 -272 -61 -52 -46 -75 -99 -75 -180 0
-49 6 -77 24 -112 l23 -47 -23 -47 c-48 -93 -27 -220 47 -290 70 -67 10 -63
1059 -63 l950 0 0 33 c1 110 129 217 261 217 29 0 42 6 58 26 12 15 21 35 21
45 0 10 -22 64 -50 120 -39 80 -50 113 -50 151 0 118 101 216 231 226 101 8
154 -29 239 -165 69 -111 122 -124 198 -51 67 65 105 82 182 83 88 0 141 -30
195 -109 50 -74 81 -97 138 -103 58 -7 128 25 156 70 10 18 22 59 26 92 14
118 70 193 167 225 l53 17 -185 188 c-506 513 -992 879 -1306 984 -125 42
-232 43 -354 2z m70 -321 c11 -11 20 -33 20 -50 0 -17 -9 -39 -20 -50 -11 -11
-33 -20 -50 -20 -17 0 -39 9 -50 20 -11 11 -20 33 -20 50 0 17 9 39 20 50 11
11 33 20 50 20 17 0 39 -9 50 -20z m400 -80 c11 -11 20 -33 20 -50 0 -17 -9
-39 -20 -50 -11 -11 -33 -20 -50 -20 -17 0 -39 9 -50 20 -11 11 -20 33 -20 50
0 17 9 39 20 50 11 11 33 20 50 20 17 0 39 -9 50 -20z m-240 -160 c11 -11 20
-33 20 -50 0 -17 -9 -39 -20 -50 -11 -11 -33 -20 -50 -20 -17 0 -39 9 -50 20
-11 11 -20 33 -20 50 0 17 9 39 20 50 11 11 33 20 50 20 17 0 39 -9 50 -20z
m-400 -80 c11 -11 20 -33 20 -50 0 -17 -9 -39 -20 -50 -11 -11 -33 -20 -50
-20 -17 0 -39 9 -50 20 -11 11 -20 33 -20 50 0 17 9 39 20 50 11 11 33 20 50
20 17 0 39 -9 50 -20z m800 -80 c11 -11 20 -33 20 -50 0 -17 -9 -39 -20 -50
-11 -11 -33 -20 -50 -20 -17 0 -39 9 -50 20 -11 11 -20 33 -20 50 0 17 9 39
20 50 11 11 33 20 50 20 17 0 39 -9 50 -20z m-1120 -240 c11 -11 20 -33 20
-50 0 -17 -9 -39 -20 -50 -11 -11 -33 -20 -50 -20 -17 0 -39 9 -50 20 -11 11
-20 33 -20 50 0 17 9 39 20 50 11 11 33 20 50 20 17 0 39 -9 50 -20z m480 0
c11 -11 20 -33 20 -50 0 -17 -9 -39 -20 -50 -11 -11 -33 -20 -50 -20 -17 0
-39 9 -50 20 -11 11 -20 33 -20 50 0 17 9 39 20 50 11 11 33 20 50 20 17 0 39
-9 50 -20z m400 0 c11 -11 20 -33 20 -50 0 -17 -9 -39 -20 -50 -11 -11 -33
-20 -50 -20 -17 0 -39 9 -50 20 -11 11 -20 33 -20 50 0 17 9 39 20 50 11 11
33 20 50 20 17 0 39 -9 50 -20z m560 0 c11 -11 20 -33 20 -50 0 -17 -9 -39
-20 -50 -11 -11 -33 -20 -50 -20 -17 0 -39 9 -50 20 -11 11 -20 33 -20 50 0
17 9 39 20 50 11 11 33 20 50 20 17 0 39 -9 50 -20z"/>
<path d="M4340 4140 c-19 -19 -20 -33 -20 -262 0 -236 0 -242 -23 -272 -57
-76 -107 -186 -128 -282 l-13 -56 -35 6 c-20 3 -53 6 -73 6 l-38 0 0 199 c0
205 -7 253 -40 271 -27 15 -83 12 -106 -4 -18 -13 -19 -33 -26 -288 -4 -150
-10 -309 -13 -353 -4 -52 -1 -105 8 -152 l14 -73 -64 0 c-87 0 -103 -17 -103
-105 0 -72 23 -200 46 -255 11 -26 12 -36 3 -39 -35 -11 -49 -42 -49 -106 0
-72 23 -200 46 -255 11 -26 12 -36 3 -39 -35 -11 -49 -42 -49 -106 0 -72 23
-200 46 -255 11 -26 12 -36 3 -39 -6 -2 -21 -13 -32 -24 -18 -18 -19 -29 -14
-116 16 -257 139 -467 334 -569 74 -38 176 -72 266 -87 l37 -6 0 -419 c0 -407
1 -421 20 -440 22 -22 78 -27 110 -10 36 20 40 61 40 471 l0 399 23 4 c271 55
421 152 516 335 80 154 119 393 71 441 -11 11 -24 20 -28 20 -5 0 2 37 15 83
26 85 41 226 29 271 -4 15 -17 31 -30 37 l-23 11 25 81 c25 85 39 226 28 271
-4 15 -17 31 -30 37 l-23 11 25 81 c15 50 26 120 29 178 5 89 4 98 -16 118
-17 17 -33 21 -90 21 l-69 0 15 53 c13 43 15 114 14 397 -2 353 -7 402 -41
420 -32 17 -88 12 -110 -10 -19 -19 -20 -33 -20 -240 l0 -220 -34 0 c-18 0
-53 -3 -78 -6 l-44 -6 -13 58 c-17 78 -58 175 -104 247 l-37 57 0 224 c0 230
-7 278 -40 296 -32 17 -88 12 -110 -10z"/>
<path d="M2495 3685 c-14 -13 -25 -36 -25 -51 0 -15 49 -122 108 -238 l108
-211 -7 -70 c-9 -72 4 -224 21 -270 13 -35 13 -55 -2 -55 -7 0 -38 -11 -69
-24 l-57 -23 -93 179 c-51 99 -104 189 -118 200 -48 37 -131 -4 -131 -65 0
-18 43 -112 110 -243 61 -117 119 -238 130 -269 23 -65 48 -110 102 -179 21
-27 38 -51 38 -55 0 -3 -20 -14 -45 -25 -53 -21 -80 -62 -70 -106 8 -36 92
-157 156 -223 39 -40 46 -53 39 -68 -15 -28 -12 -66 10 -108 26 -51 133 -186
164 -206 23 -15 23 -18 10 -43 -8 -15 -14 -37 -14 -48 0 -30 85 -157 153 -228
45 -48 54 -63 46 -77 -18 -35 -9 -79 27 -137 115 -180 279 -302 448 -333 52
-10 86 -10 157 0 90 12 309 75 309 89 0 4 -27 27 -61 52 -86 63 -210 197 -267
290 -27 44 -65 124 -83 178 -33 96 -34 99 -35 287 -1 141 -5 207 -17 255 -21
81 -21 153 -1 205 26 68 27 81 5 173 -25 105 -26 172 -5 227 26 68 27 80 4
179 -25 109 -24 187 5 248 18 36 17 38 -5 92 -12 31 -36 75 -53 99 -17 23 -80
137 -140 252 -60 116 -118 218 -129 228 -32 27 -75 22 -110 -13 -42 -43 -37
-61 72 -269 68 -131 88 -176 78 -182 -7 -4 -35 -24 -63 -43 l-50 -36 -24 33
c-42 54 -102 107 -181 158 -41 26 -83 54 -92 61 -9 7 -63 101 -118 208 -56
107 -109 203 -117 213 -25 26 -88 23 -118 -8z"/>
<path d="M176 2838 c-68 -468 -90 -757 -90 -1223 0 -393 12 -598 48 -805 l13
-75 -57 -85 c-32 -47 -65 -99 -74 -117 -34 -67 -12 -167 53 -236 60 -65 183
-101 268 -78 35 10 62 7 185 -19 659 -137 1157 -194 1708 -194 490 1 922 42
1450 140 173 32 190 38 227 77 45 47 55 73 55 137 0 61 -16 102 -54 136 -46
43 -79 51 -218 57 -199 8 -343 54 -507 163 -159 106 -269 257 -280 385 -6 59
-10 68 -57 122 -80 90 -124 169 -131 235 -7 66 -1 56 -87 162 -70 87 -98 147
-98 212 0 32 -9 49 -58 108 -134 159 -162 279 -91 381 l18 26 -72 144 c-40 79
-99 199 -131 267 l-58 122 -977 0 -978 0 -7 -42z"/>
</g>
</svg>
